<svg xmlns="http://www.w3.org/2000/svg" width="24" height="24"" viewBox="0 0 85.541 85.541">
    <path fill="currentColor" d="M72.366 8.586c-9.381-5.192-21.793-3.614-29.587 3.594-7.808-7.202-20.209-8.786-29.586-3.594A25.47 25.47 0 0 0 0 30.902c0 2.687.428 5.343 1.191 7.589 1.75 7.879 9.108 16.391 17.05 23.625L5.875 73.95a3.023 3.023 0 0 0-.094 4.279 2.992 2.992 0 0 0 2.184.935c.757 0 1.507-.284 2.096-.846l12.764-12.224c9.061 7.566 17.632 12.998 18.344 13.459.49.308 1.049.455 1.61.455.564 0 1.12-.147 1.61-.455 1.464-.922 35.891-22.721 39.875-40.772a24.785 24.785 0 0 0 1.276-7.879c.012-9.28-5.047-17.833-13.174-22.316zm6.088 28.588c-2.767 12.495-25.328 29.459-35.669 36.221-3.975-2.606-9.761-6.715-15.536-11.514l5.488-5.261c2.914 2.099 6.375 3.269 10.036 3.269 4.599 0 8.929-1.785 12.18-5.03 3.257-3.245 5.06-7.554 5.06-12.141 0-4.596-1.803-8.91-5.06-12.149-6.502-6.476-17.857-6.458-24.344.023a17 17 0 0 0-5.057 12.15c0 3.469 1.031 6.768 2.938 9.576l-5.828 5.585C15.137 51.088 8.491 43.439 7.028 36.875a18.691 18.691 0 0 1-.97-5.967 19.438 19.438 0 0 1 10.066-17.014 19.203 19.203 0 0 1 9.356-2.415c5.799 0 11.257 2.565 14.981 7.04a3.054 3.054 0 0 0 2.329 1.093 3.02 3.02 0 0 0 2.332-1.093c5.787-6.999 16.391-9.02 24.306-4.625a19.433 19.433 0 0 1 10.071 17.02c.001 2.022-.313 4.031-1.045 6.26zm-46.855 5.561c0-2.967 1.165-5.757 3.275-7.87a11.147 11.147 0 0 1 7.917-3.26c2.985 0 5.784 1.141 7.894 3.248 2.104 2.102 3.274 4.892 3.274 7.858 0 2.962-1.171 5.751-3.274 7.855-4.232 4.202-11.597 4.202-15.823.006a10.998 10.998 0 0 1-3.263-7.837z"/>
</svg>
